<svg id="visual" viewBox="0 0 900 600" width="900" height="600" xmlns="http://www.w3.org/2000/svg" xmlns:xlink="http://www.w3.org/1999/xlink" version="1.1"><g stroke-width="1" stroke-linejoin="bevel"><path d="M425.6 276.8L453.7 263.1L391.6 241.9Z" fill="#112e42" stroke="#112e42"></path><path d="M391.6 241.9L386.9 258.6L425.6 276.8Z" fill="#246688" stroke="#246688"></path><path d="M453.7 263.1L408.9 189.9L391.6 241.9Z" fill="#246688" stroke="#246688"></path><path d="M453.7 263.1L481.7 190.8L408.9 189.9Z" fill="#00101c" stroke="#00101c"></path><path d="M408.9 189.9L352.2 216.8L391.6 241.9Z" fill="#205a7a" stroke="#205a7a"></path><path d="M391.6 241.9L352.2 216.8L386.9 258.6Z" fill="#246688" stroke="#246688"></path><path d="M436.3 335.4L495.4 280.8L453.7 263.1Z" fill="#15384f" stroke="#15384f"></path><path d="M453.7 263.1L522.3 224.1L481.7 190.8Z" fill="#112e42" stroke="#112e42"></path><path d="M352.2 216.8L357.9 288.1L386.9 258.6Z" fill="#1d4e6b" stroke="#1d4e6b"></path><path d="M386.9 258.6L382.9 315.8L425.6 276.8Z" fill="#297ea6" stroke="#297ea6"></path><path d="M425.6 276.8L436.3 335.4L453.7 263.1Z" fill="#246688" stroke="#246688"></path><path d="M357.9 288.1L382.9 315.8L386.9 258.6Z" fill="#00101c" stroke="#00101c"></path><path d="M357.9 288.1L382.3 324.2L382.9 315.8Z" fill="#297ea6" stroke="#297ea6"></path><path d="M382.9 315.8L436.3 335.4L425.6 276.8Z" fill="#15384f" stroke="#15384f"></path><path d="M382.3 324.2L436.3 335.4L382.9 315.8Z" fill="#081a28" stroke="#081a28"></path><path d="M495.4 280.8L522.3 224.1L453.7 263.1Z" fill="#112e42" stroke="#112e42"></path><path d="M455.7 110.6L425.3 143.6L481.7 190.8Z" fill="#1d4e6b" stroke="#1d4e6b"></path><path d="M481.7 190.8L425.3 143.6L408.9 189.9Z" fill="#112e42" stroke="#112e42"></path><path d="M408.9 189.9L340.3 182.8L352.2 216.8Z" fill="#112e42" stroke="#112e42"></path><path d="M411.3 136.5L340.3 182.8L408.9 189.9Z" fill="#1d4e6b" stroke="#1d4e6b"></path><path d="M352.2 216.8L317.8 274.6L357.9 288.1Z" fill="#00101c" stroke="#00101c"></path><path d="M425.3 143.6L411.3 136.5L408.9 189.9Z" fill="#205a7a" stroke="#205a7a"></path><path d="M533.7 272.2L534.4 260.9L495.4 280.8Z" fill="#1d4e6b" stroke="#1d4e6b"></path><path d="M495.4 280.8L534.4 260.9L522.3 224.1Z" fill="#246688" stroke="#246688"></path><path d="M294.2 199.9L329.3 188.9L301.2 148.5Z" fill="#1d4e6b" stroke="#1d4e6b"></path><path d="M340.3 182.8L329.3 188.9L352.2 216.8Z" fill="#1d4e6b" stroke="#1d4e6b"></path><path d="M553.7 352.4L533.7 272.2L495.4 280.8Z" fill="#00101c" stroke="#00101c"></path><path d="M553.7 238.9L537.8 245.8L534.4 260.9Z" fill="#081a28" stroke="#081a28"></path><path d="M534.4 260.9L537.8 245.8L522.3 224.1Z" fill="#277297" stroke="#277297"></path><path d="M293.8 253.8L317.8 274.6L352.2 216.8Z" fill="#246688" stroke="#246688"></path><path d="M345.6 374.4L377.9 367.5L382.3 324.2Z" fill="#081a28" stroke="#081a28"></path><path d="M533.7 272.2L553.7 238.9L534.4 260.9Z" fill="#277297" stroke="#277297"></path><path d="M537.8 245.8L553.7 238.9L522.3 224.1Z" fill="#277297" stroke="#277297"></path><path d="M493.7 109.3L455.7 110.6L481.7 190.8Z" fill="#246688" stroke="#246688"></path><path d="M289.8 237.5L293.8 253.8L352.2 216.8Z" fill="#297ea6" stroke="#297ea6"></path><path d="M345.6 374.4L382.3 324.2L357.9 288.1Z" fill="#112e42" stroke="#112e42"></path><path d="M382.3 324.2L377.9 367.5L436.3 335.4Z" fill="#297ea6" stroke="#297ea6"></path><path d="M345.6 374.4L357.9 288.1L317.8 274.6Z" fill="#205a7a" stroke="#205a7a"></path><path d="M540.1 168.8L481.7 190.8L522.3 224.1Z" fill="#112e42" stroke="#112e42"></path><path d="M425.3 143.6L455.7 110.6L411.3 136.5Z" fill="#081a28" stroke="#081a28"></path><path d="M553.7 238.9L540.1 168.8L522.3 224.1Z" fill="#297ea6" stroke="#297ea6"></path><path d="M294.2 199.9L289.8 237.5L352.2 216.8Z" fill="#0c2435" stroke="#0c2435"></path><path d="M280.5 293.1L295.2 281.6L269.5 256.6Z" fill="#1d4e6b" stroke="#1d4e6b"></path><path d="M293.8 253.8L295.2 281.6L317.8 274.6Z" fill="#15384f" stroke="#15384f"></path><path d="M301.2 148.5L329.3 188.9L340.3 182.8Z" fill="#15384f" stroke="#15384f"></path><path d="M329.3 188.9L294.2 199.9L352.2 216.8Z" fill="#15384f" stroke="#15384f"></path><path d="M332.8 122.2L340.3 182.8L411.3 136.5Z" fill="#112e42" stroke="#112e42"></path><path d="M540.1 168.8L512.4 123.6L481.7 190.8Z" fill="#297ea6" stroke="#297ea6"></path><path d="M512.4 123.6L493.7 109.3L481.7 190.8Z" fill="#277297" stroke="#277297"></path><path d="M419.7 55.5L395.7 96.2L455.7 110.6Z" fill="#205a7a" stroke="#205a7a"></path><path d="M455.7 110.6L395.7 96.2L411.3 136.5Z" fill="#15384f" stroke="#15384f"></path><path d="M346.6 100.3L332.8 122.2L411.3 136.5Z" fill="#1d4e6b" stroke="#1d4e6b"></path><path d="M269.5 256.6L295.2 281.6L293.8 253.8Z" fill="#297ea6" stroke="#297ea6"></path><path d="M295.2 281.6L345.6 374.4L317.8 274.6Z" fill="#112e42" stroke="#112e42"></path><path d="M269.5 256.6L293.8 253.8L289.8 237.5Z" fill="#297ea6" stroke="#297ea6"></path><path d="M280.5 293.1L345.6 374.4L295.2 281.6Z" fill="#00101c" stroke="#00101c"></path><path d="M332.8 122.2L301.2 148.5L340.3 182.8Z" fill="#00101c" stroke="#00101c"></path><path d="M241.6 188.6L269.5 256.6L289.8 237.5Z" fill="#246688" stroke="#246688"></path><path d="M474.7 391.5L484.4 387.5L436.3 335.4Z" fill="#246688" stroke="#246688"></path><path d="M436.3 335.4L484.4 387.5L495.4 280.8Z" fill="#277297" stroke="#277297"></path><path d="M604.4 255.1L590.1 220.5L553.7 238.9Z" fill="#00101c" stroke="#00101c"></path><path d="M474.7 391.5L436.3 335.4L448.7 408.7Z" fill="#277297" stroke="#277297"></path><path d="M448.7 408.7L436.3 335.4L402.6 414.2Z" fill="#112e42" stroke="#112e42"></path><path d="M241.6 188.6L289.8 237.5L294.2 199.9Z" fill="#00101c" stroke="#00101c"></path><path d="M512.4 123.6L503.4 101.2L493.7 109.3Z" fill="#19435d" stroke="#19435d"></path><path d="M493.7 109.3L456.9 66.2L455.7 110.6Z" fill="#1d4e6b" stroke="#1d4e6b"></path><path d="M501.3 73.3L503.4 101.2L517.8 56.3Z" fill="#00101c" stroke="#00101c"></path><path d="M346.6 100.3L325.9 116.3L332.8 122.2Z" fill="#00101c" stroke="#00101c"></path><path d="M332.8 122.2L325.9 116.3L301.2 148.5Z" fill="#297ea6" stroke="#297ea6"></path><path d="M395.7 96.2L346.6 100.3L411.3 136.5Z" fill="#205a7a" stroke="#205a7a"></path><path d="M280.5 293.1L336.9 379.2L345.6 374.4Z" fill="#205a7a" stroke="#205a7a"></path><path d="M345.6 374.4L351.2 393.1L377.9 367.5Z" fill="#246688" stroke="#246688"></path><path d="M419.7 55.5L373.2 87.3L395.7 96.2Z" fill="#15384f" stroke="#15384f"></path><path d="M395.7 96.2L373.2 87.3L346.6 100.3Z" fill="#00101c" stroke="#00101c"></path><path d="M604.4 255.1L553.7 238.9L533.7 272.2Z" fill="#297ea6" stroke="#297ea6"></path><path d="M553.7 238.9L590.1 220.5L540.1 168.8Z" fill="#277297" stroke="#277297"></path><path d="M565.1 99.2L503.4 101.2L512.4 123.6Z" fill="#297ea6" stroke="#297ea6"></path><path d="M402.6 414.2L436.3 335.4L377.9 367.5Z" fill="#19435d" stroke="#19435d"></path><path d="M463.1 432.5L535.8 393.2L484.4 387.5Z" fill="#15384f" stroke="#15384f"></path><path d="M336.9 379.2L351.2 393.1L345.6 374.4Z" fill="#19435d" stroke="#19435d"></path><path d="M535.8 393.2L553.7 352.4L484.4 387.5Z" fill="#19435d" stroke="#19435d"></path><path d="M484.4 387.5L553.7 352.4L495.4 280.8Z" fill="#205a7a" stroke="#205a7a"></path><path d="M351.2 393.1L402.6 414.2L377.9 367.5Z" fill="#15384f" stroke="#15384f"></path><path d="M501.3 73.3L456.9 66.2L493.7 109.3Z" fill="#246688" stroke="#246688"></path><path d="M605.1 299.1L604.4 255.1L533.7 272.2Z" fill="#081a28" stroke="#081a28"></path><path d="M565.1 99.2L512.4 123.6L540.1 168.8Z" fill="#1d4e6b" stroke="#1d4e6b"></path><path d="M503.4 101.2L501.3 73.3L493.7 109.3Z" fill="#19435d" stroke="#19435d"></path><path d="M604.4 255.1L609.1 213.9L590.1 220.5Z" fill="#1d4e6b" stroke="#1d4e6b"></path><path d="M590.1 220.5L603.2 144.8L540.1 168.8Z" fill="#297ea6" stroke="#297ea6"></path><path d="M463.1 432.5L484.4 387.5L474.7 391.5Z" fill="#0c2435" stroke="#0c2435"></path><path d="M553.7 352.4L605.1 299.1L533.7 272.2Z" fill="#081a28" stroke="#081a28"></path><path d="M383.9 0L419.7 55.5L412.6 -5.8Z" fill="#246688" stroke="#246688"></path><path d="M456.9 66.2L419.7 55.5L455.7 110.6Z" fill="#297ea6" stroke="#297ea6"></path><path d="M315.6 62.5L325.9 116.3L346.6 100.3Z" fill="#1d4e6b" stroke="#1d4e6b"></path><path d="M610.8 311.9L605.1 299.1L553.7 352.4Z" fill="#297ea6" stroke="#297ea6"></path><path d="M604.4 255.1L684.5 275.9L609.1 213.9Z" fill="#277297" stroke="#277297"></path><path d="M231.5 272.2L244.6 297.1L269.5 256.6Z" fill="#19435d" stroke="#19435d"></path><path d="M269.5 256.6L244.6 297.1L280.5 293.1Z" fill="#246688" stroke="#246688"></path><path d="M280.5 293.1L245.8 335.4L336.9 379.2Z" fill="#15384f" stroke="#15384f"></path><path d="M336.9 379.2L310.9 475.4L351.2 393.1Z" fill="#19435d" stroke="#19435d"></path><path d="M287.9 100.5L241.6 188.6L301.2 148.5Z" fill="#1d4e6b" stroke="#1d4e6b"></path><path d="M301.2 148.5L241.6 188.6L294.2 199.9Z" fill="#1d4e6b" stroke="#1d4e6b"></path><path d="M402.6 414.2L463.1 432.5L448.7 408.7Z" fill="#277297" stroke="#277297"></path><path d="M448.7 408.7L463.1 432.5L474.7 391.5Z" fill="#15384f" stroke="#15384f"></path><path d="M605.1 299.1L616.2 282.6L604.4 255.1Z" fill="#1d4e6b" stroke="#1d4e6b"></path><path d="M241.6 188.6L231.5 272.2L269.5 256.6Z" fill="#00101c" stroke="#00101c"></path><path d="M595.2 353.4L610.8 311.9L553.7 352.4Z" fill="#277297" stroke="#277297"></path><path d="M605.1 299.1L626.8 292.1L616.2 282.6Z" fill="#0c2435" stroke="#0c2435"></path><path d="M315.6 62.5L287.9 100.5L325.9 116.3Z" fill="#0c2435" stroke="#0c2435"></path><path d="M325.9 116.3L287.9 100.5L301.2 148.5Z" fill="#246688" stroke="#246688"></path><path d="M315.6 62.5L346.6 100.3L373.2 87.3Z" fill="#205a7a" stroke="#205a7a"></path><path d="M603.2 144.8L565.1 99.2L540.1 168.8Z" fill="#15384f" stroke="#15384f"></path><path d="M609.1 213.9L603.2 144.8L590.1 220.5Z" fill="#205a7a" stroke="#205a7a"></path><path d="M614.1 127.3L603.2 144.8L619.4 129.5Z" fill="#246688" stroke="#246688"></path><path d="M605.2 370.2L595.2 353.4L553.7 352.4Z" fill="#205a7a" stroke="#205a7a"></path><path d="M226.2 291.2L245.8 335.4L244.6 297.1Z" fill="#15384f" stroke="#15384f"></path><path d="M244.6 297.1L245.8 335.4L280.5 293.1Z" fill="#246688" stroke="#246688"></path><path d="M219.1 276.8L226.2 291.2L231.5 272.2Z" fill="#081a28" stroke="#081a28"></path><path d="M231.5 272.2L226.2 291.2L244.6 297.1Z" fill="#297ea6" stroke="#297ea6"></path><path d="M610.8 311.9L626.8 292.1L605.1 299.1Z" fill="#246688" stroke="#246688"></path><path d="M616.2 282.6L684.5 275.9L604.4 255.1Z" fill="#297ea6" stroke="#297ea6"></path><path d="M657.4 343.4L626.8 292.1L610.8 311.9Z" fill="#081a28" stroke="#081a28"></path><path d="M565.1 99.2L517.8 56.3L503.4 101.2Z" fill="#1d4e6b" stroke="#1d4e6b"></path><path d="M501.3 73.3L517.8 56.3L456.9 66.2Z" fill="#1d4e6b" stroke="#1d4e6b"></path><path d="M163.7 246.1L219.1 276.8L231.5 272.2Z" fill="#297ea6" stroke="#297ea6"></path><path d="M226.2 291.2L202.5 348.4L245.8 335.4Z" fill="#246688" stroke="#246688"></path><path d="M314.8 24.3L315.6 62.5L355.6 0Z" fill="#1d4e6b" stroke="#1d4e6b"></path><path d="M163.7 246.1L216.8 279.1L219.1 276.8Z" fill="#205a7a" stroke="#205a7a"></path><path d="M219.1 276.8L216.8 279.1L226.2 291.2Z" fill="#15384f" stroke="#15384f"></path><path d="M535.8 393.2L605.2 370.2L553.7 352.4Z" fill="#081a28" stroke="#081a28"></path><path d="M463.1 432.5L551.4 418.7L535.8 393.2Z" fill="#00101c" stroke="#00101c"></path><path d="M551.4 418.7L605.2 370.2L535.8 393.2Z" fill="#0c2435" stroke="#0c2435"></path><path d="M595.2 353.4L657.4 343.4L610.8 311.9Z" fill="#081a28" stroke="#081a28"></path><path d="M603.2 144.8L614.1 127.3L565.1 99.2Z" fill="#112e42" stroke="#112e42"></path><path d="M565.1 99.2L598.2 71.2L517.8 56.3Z" fill="#081a28" stroke="#081a28"></path><path d="M619.4 129.5L603.2 144.8L666.5 135.5Z" fill="#297ea6" stroke="#297ea6"></path><path d="M666.5 135.5L603.2 144.8L609.1 213.9Z" fill="#277297" stroke="#277297"></path><path d="M614.1 127.3L620.1 118.6L565.1 99.2Z" fill="#081a28" stroke="#081a28"></path><path d="M666.2 134.5L620.1 118.6L619.4 129.5Z" fill="#19435d" stroke="#19435d"></path><path d="M619.4 129.5L620.1 118.6L614.1 127.3Z" fill="#19435d" stroke="#19435d"></path><path d="M599.2 418.7L616.1 384.2L605.2 370.2Z" fill="#15384f" stroke="#15384f"></path><path d="M605.2 370.2L642.4 372.2L595.2 353.4Z" fill="#297ea6" stroke="#297ea6"></path><path d="M463.1 432.5L560.8 441.4L551.4 418.7Z" fill="#081a28" stroke="#081a28"></path><path d="M551.4 418.7L599.2 418.7L605.2 370.2Z" fill="#246688" stroke="#246688"></path><path d="M620.1 118.6L598.2 71.2L565.1 99.2Z" fill="#081a28" stroke="#081a28"></path><path d="M355.6 0L315.6 62.5L373.2 87.3Z" fill="#112e42" stroke="#112e42"></path><path d="M315.6 62.5L227.1 78.3L287.9 100.5Z" fill="#246688" stroke="#246688"></path><path d="M209.5 87.2L192.5 160.5L241.6 188.6Z" fill="#112e42" stroke="#112e42"></path><path d="M378.7 0L373.2 87.3L419.7 55.5Z" fill="#205a7a" stroke="#205a7a"></path><path d="M479.4 0L456.9 66.2L517.8 56.3Z" fill="#0c2435" stroke="#0c2435"></path><path d="M479.4 0L419.7 55.5L456.9 66.2Z" fill="#112e42" stroke="#112e42"></path><path d="M402.6 414.2L449.1 487.8L463.1 432.5Z" fill="#112e42" stroke="#112e42"></path><path d="M463.1 432.5L556.1 506.4L560.8 441.4Z" fill="#15384f" stroke="#15384f"></path><path d="M414.3 502.5L449.1 487.8L402.6 414.2Z" fill="#297ea6" stroke="#297ea6"></path><path d="M362.2 501.4L402.6 414.2L351.2 393.1Z" fill="#081a28" stroke="#081a28"></path><path d="M383.9 0L378.7 0L419.7 55.5Z" fill="#19435d" stroke="#19435d"></path><path d="M560.8 441.4L599.2 418.7L551.4 418.7Z" fill="#277297" stroke="#277297"></path><path d="M378.7 0L375.3 0L373.2 87.3Z" fill="#297ea6" stroke="#297ea6"></path><path d="M209.5 87.2L241.6 188.6L287.9 100.5Z" fill="#00101c" stroke="#00101c"></path><path d="M241.6 188.6L163.7 246.1L231.5 272.2Z" fill="#297ea6" stroke="#297ea6"></path><path d="M216.8 279.1L202.5 348.4L226.2 291.2Z" fill="#15384f" stroke="#15384f"></path><path d="M276.8 465.7L310.9 475.4L336.9 379.2Z" fill="#19435d" stroke="#19435d"></path><path d="M117.1 319.1L202.5 348.4L216.8 279.1Z" fill="#297ea6" stroke="#297ea6"></path><path d="M509.1 0L479.4 0L517.8 56.3Z" fill="#112e42" stroke="#112e42"></path><path d="M479.4 0L412.6 -5.8L419.7 55.5Z" fill="#205a7a" stroke="#205a7a"></path><path d="M383.9 0L410.3 -36.8L378.7 0Z" fill="#0c2435" stroke="#0c2435"></path><path d="M378.7 0L410.3 -36.8L375.3 0Z" fill="#0c2435" stroke="#0c2435"></path><path d="M410.3 -36.8L355.6 0L375.3 0Z" fill="#1d4e6b" stroke="#1d4e6b"></path><path d="M375.3 0L355.6 0L373.2 87.3Z" fill="#297ea6" stroke="#297ea6"></path><path d="M670.5 406.2L642.4 372.2L616.1 384.2Z" fill="#112e42" stroke="#112e42"></path><path d="M616.1 384.2L642.4 372.2L605.2 370.2Z" fill="#19435d" stroke="#19435d"></path><path d="M626.8 292.1L684.5 275.9L616.2 282.6Z" fill="#00101c" stroke="#00101c"></path><path d="M642.4 372.2L657.4 343.4L595.2 353.4Z" fill="#00101c" stroke="#00101c"></path><path d="M581.8 -3.8L509.1 0L517.8 56.3Z" fill="#19435d" stroke="#19435d"></path><path d="M479.4 0L410.3 -36.8L412.6 -5.8Z" fill="#246688" stroke="#246688"></path><path d="M251.2 0L227.1 78.3L315.6 62.5Z" fill="#297ea6" stroke="#297ea6"></path><path d="M210.8 392.2L336.9 379.2L245.8 335.4Z" fill="#297ea6" stroke="#297ea6"></path><path d="M680.9 303.8L684.5 275.9L626.8 292.1Z" fill="#00101c" stroke="#00101c"></path><path d="M362.2 501.4L414.3 502.5L402.6 414.2Z" fill="#246688" stroke="#246688"></path><path d="M556.1 506.4L595.8 444.7L560.8 441.4Z" fill="#081a28" stroke="#081a28"></path><path d="M684.5 275.9L680.9 303.8L733.9 290.1Z" fill="#297ea6" stroke="#297ea6"></path><path d="M657.4 343.4L680.9 303.8L626.8 292.1Z" fill="#1d4e6b" stroke="#1d4e6b"></path><path d="M202.5 348.4L210.8 392.2L245.8 335.4Z" fill="#19435d" stroke="#19435d"></path><path d="M192.5 160.5L163.7 246.1L241.6 188.6Z" fill="#277297" stroke="#277297"></path><path d="M202.5 348.4L150.7 379.4L210.8 392.2Z" fill="#15384f" stroke="#15384f"></path><path d="M697.8 201.5L666.5 135.5L609.1 213.9Z" fill="#1d4e6b" stroke="#1d4e6b"></path><path d="M692.9 98.5L630.2 23.3L598.2 71.2Z" fill="#246688" stroke="#246688"></path><path d="M666.5 135.5L666.2 134.5L619.4 129.5Z" fill="#246688" stroke="#246688"></path><path d="M599.2 418.7L670.5 406.2L616.1 384.2Z" fill="#246688" stroke="#246688"></path><path d="M560.8 441.4L595.8 444.7L599.2 418.7Z" fill="#1d4e6b" stroke="#1d4e6b"></path><path d="M556.1 506.4L463.1 432.5L449.1 487.8Z" fill="#112e42" stroke="#112e42"></path><path d="M227.1 78.3L209.5 87.2L287.9 100.5Z" fill="#0c2435" stroke="#0c2435"></path><path d="M135.7 217.5L156.7 251.8L163.7 246.1Z" fill="#00101c" stroke="#00101c"></path><path d="M189.2 56.2L209.5 87.2L227.1 78.3Z" fill="#081a28" stroke="#081a28"></path><path d="M159.7 109.3L209.5 87.2L189.2 56.2Z" fill="#15384f" stroke="#15384f"></path><path d="M310.9 475.4L362.2 501.4L351.2 393.1Z" fill="#277297" stroke="#277297"></path><path d="M210.8 392.2L276.8 465.7L336.9 379.2Z" fill="#081a28" stroke="#081a28"></path><path d="M310.9 475.4L301.2 494.5L362.2 501.4Z" fill="#246688" stroke="#246688"></path><path d="M144.8 181.9L163.7 246.1L192.5 160.5Z" fill="#15384f" stroke="#15384f"></path><path d="M163.7 246.1L156.7 251.8L216.8 279.1Z" fill="#277297" stroke="#277297"></path><path d="M684.5 275.9L697.8 201.5L609.1 213.9Z" fill="#19435d" stroke="#19435d"></path><path d="M712.9 129.3L692.9 98.5L666.2 134.5Z" fill="#1d4e6b" stroke="#1d4e6b"></path><path d="M714.5 259.1L697.8 201.5L684.5 275.9Z" fill="#205a7a" stroke="#205a7a"></path><path d="M509.1 0L410.3 -36.8L479.4 0Z" fill="#15384f" stroke="#15384f"></path><path d="M412.6 -5.8L410.3 -36.8L383.9 0Z" fill="#297ea6" stroke="#297ea6"></path><path d="M355.6 0L251.2 0L314.8 24.3Z" fill="#246688" stroke="#246688"></path><path d="M362.2 501.4L420.6 523.5L414.3 502.5Z" fill="#0c2435" stroke="#0c2435"></path><path d="M414.3 502.5L420.6 523.5L449.1 487.8Z" fill="#19435d" stroke="#19435d"></path><path d="M244.2 486.7L301.2 494.5L276.8 465.7Z" fill="#081a28" stroke="#081a28"></path><path d="M276.8 465.7L301.2 494.5L310.9 475.4Z" fill="#277297" stroke="#277297"></path><path d="M362.2 501.4L410.6 574.7L420.6 523.5Z" fill="#1d4e6b" stroke="#1d4e6b"></path><path d="M159.7 109.3L144.8 181.9L192.5 160.5Z" fill="#081a28" stroke="#081a28"></path><path d="M709.9 340.4L680.9 303.8L657.4 343.4Z" fill="#205a7a" stroke="#205a7a"></path><path d="M733.9 290.1L714.5 259.1L684.5 275.9Z" fill="#081a28" stroke="#081a28"></path><path d="M210.8 392.2L251.5 472.5L276.8 465.7Z" fill="#297ea6" stroke="#297ea6"></path><path d="M598.2 71.2L581.8 -3.8L517.8 56.3Z" fill="#277297" stroke="#277297"></path><path d="M509.1 0L581.8 -3.8L410.3 -36.8Z" fill="#00101c" stroke="#00101c"></path><path d="M630.2 23.3L581.8 -3.8L598.2 71.2Z" fill="#112e42" stroke="#112e42"></path><path d="M144.8 181.9L135.7 217.5L163.7 246.1Z" fill="#297ea6" stroke="#297ea6"></path><path d="M117.1 319.1L150.7 379.4L202.5 348.4Z" fill="#0c2435" stroke="#0c2435"></path><path d="M595.8 444.7L670.5 406.2L599.2 418.7Z" fill="#00101c" stroke="#00101c"></path><path d="M642.4 372.2L670.5 406.2L657.4 343.4Z" fill="#0c2435" stroke="#0c2435"></path><path d="M513.1 563.7L556.1 506.4L449.1 487.8Z" fill="#19435d" stroke="#19435d"></path><path d="M721.9 460.2L704.2 419.1L702.8 493.5Z" fill="#112e42" stroke="#112e42"></path><path d="M251.2 0L315.6 62.5L314.8 24.3Z" fill="#112e42" stroke="#112e42"></path><path d="M209.5 87.2L159.7 109.3L192.5 160.5Z" fill="#246688" stroke="#246688"></path><path d="M103.5 292.9L114.4 280.1L52.1 275.9Z" fill="#277297" stroke="#277297"></path><path d="M410.3 -36.8L251.2 0L355.6 0Z" fill="#297ea6" stroke="#297ea6"></path><path d="M692.9 98.5L620.1 118.6L666.2 134.5Z" fill="#205a7a" stroke="#205a7a"></path><path d="M692.9 98.5L598.2 71.2L620.1 118.6Z" fill="#0c2435" stroke="#0c2435"></path><path d="M670.5 406.2L709.9 340.4L657.4 343.4Z" fill="#15384f" stroke="#15384f"></path><path d="M187.1 38.2L189.2 56.2L227.1 78.3Z" fill="#297ea6" stroke="#297ea6"></path><path d="M712.9 129.3L666.5 135.5L697.8 201.5Z" fill="#0c2435" stroke="#0c2435"></path><path d="M712.9 129.3L666.2 134.5L666.5 135.5Z" fill="#00101c" stroke="#00101c"></path><path d="M733.9 290.1L729.2 225.9L714.5 259.1Z" fill="#15384f" stroke="#15384f"></path><path d="M714.5 259.1L729.2 225.9L697.8 201.5Z" fill="#0c2435" stroke="#0c2435"></path><path d="M219.8 492.5L244.2 486.7L251.5 472.5Z" fill="#081a28" stroke="#081a28"></path><path d="M251.5 472.5L244.2 486.7L276.8 465.7Z" fill="#277297" stroke="#277297"></path><path d="M330.3 572.8L410.6 574.7L362.2 501.4Z" fill="#0c2435" stroke="#0c2435"></path><path d="M219.8 492.5L251.5 472.5L210.8 392.2Z" fill="#1d4e6b" stroke="#1d4e6b"></path><path d="M729.2 225.9L728.3 195.8L697.8 201.5Z" fill="#297ea6" stroke="#297ea6"></path><path d="M632.5 0L619.4 3.3L630.2 23.3Z" fill="#19435d" stroke="#19435d"></path><path d="M630.2 23.3L619.4 3.3L581.8 -3.8Z" fill="#0c2435" stroke="#0c2435"></path><path d="M581.8 -3.8L782.5 -39.8L410.3 -36.8Z" fill="#112e42" stroke="#112e42"></path><path d="M117.1 319.1L216.8 279.1L156.7 251.8Z" fill="#297ea6" stroke="#297ea6"></path><path d="M728.3 195.8L712.9 129.3L697.8 201.5Z" fill="#277297" stroke="#277297"></path><path d="M709.9 340.4L733.9 290.1L680.9 303.8Z" fill="#112e42" stroke="#112e42"></path><path d="M762.5 172.3L736.5 132.8L728.3 195.8Z" fill="#00101c" stroke="#00101c"></path><path d="M114.4 280.1L135.7 217.5L57.1 232.6Z" fill="#205a7a" stroke="#205a7a"></path><path d="M135.7 217.5L114.4 280.1L156.7 251.8Z" fill="#00101c" stroke="#00101c"></path><path d="M189.2 56.2L162.7 19.2L159.7 109.3Z" fill="#081a28" stroke="#081a28"></path><path d="M209.8 0L187.1 38.2L227.1 78.3Z" fill="#0c2435" stroke="#0c2435"></path><path d="M639.2 0L632.5 0L630.2 23.3Z" fill="#205a7a" stroke="#205a7a"></path><path d="M619.4 3.3L632.5 0L581.8 -3.8Z" fill="#19435d" stroke="#19435d"></path><path d="M703.8 0L630.2 23.3L692.9 98.5Z" fill="#081a28" stroke="#081a28"></path><path d="M112.4 304.2L117.1 319.1L156.7 251.8Z" fill="#0c2435" stroke="#0c2435"></path><path d="M736.5 132.8L707.8 92.6L712.9 129.3Z" fill="#205a7a" stroke="#205a7a"></path><path d="M712.9 129.3L707.8 92.6L692.9 98.5Z" fill="#00101c" stroke="#00101c"></path><path d="M114.4 280.1L112.4 304.2L156.7 251.8Z" fill="#19435d" stroke="#19435d"></path><path d="M703.8 0L639.2 0L630.2 23.3Z" fill="#0c2435" stroke="#0c2435"></path><path d="M632.5 0L782.5 -39.8L581.8 -3.8Z" fill="#297ea6" stroke="#297ea6"></path><path d="M158.7 466.2L219.8 492.5L210.8 392.2Z" fill="#277297" stroke="#277297"></path><path d="M244.2 486.7L244.2 527.8L301.2 494.5Z" fill="#205a7a" stroke="#205a7a"></path><path d="M410.3 -36.8L209.8 0L251.2 0Z" fill="#0c2435" stroke="#0c2435"></path><path d="M251.2 0L209.8 0L227.1 78.3Z" fill="#112e42" stroke="#112e42"></path><path d="M100.5 177.3L135.7 217.5L144.8 181.9Z" fill="#277297" stroke="#277297"></path><path d="M114.4 280.1L103.5 292.9L112.4 304.2Z" fill="#19435d" stroke="#19435d"></path><path d="M112.4 304.2L93.5 308.8L117.1 319.1Z" fill="#19435d" stroke="#19435d"></path><path d="M728.3 195.8L736.5 132.8L712.9 129.3Z" fill="#15384f" stroke="#15384f"></path><path d="M762.5 172.3L728.3 195.8L729.2 225.9Z" fill="#19435d" stroke="#19435d"></path><path d="M704.2 419.1L670.5 406.2L702.8 493.5Z" fill="#246688" stroke="#246688"></path><path d="M670.5 406.2L704.2 419.1L709.9 340.4Z" fill="#112e42" stroke="#112e42"></path><path d="M709.9 340.4L739.3 351.1L733.9 290.1Z" fill="#1d4e6b" stroke="#1d4e6b"></path><path d="M704.2 419.1L739.3 351.1L709.9 340.4Z" fill="#00101c" stroke="#00101c"></path><path d="M831.6 292.9L762.5 172.3L729.2 225.9Z" fill="#277297" stroke="#277297"></path><path d="M74.4 145.8L100.5 177.3L159.7 109.3Z" fill="#1d4e6b" stroke="#1d4e6b"></path><path d="M159.7 109.3L100.5 177.3L144.8 181.9Z" fill="#15384f" stroke="#15384f"></path><path d="M162.7 19.2L189.2 56.2L187.1 38.2Z" fill="#0c2435" stroke="#0c2435"></path><path d="M320.9 569.7L362.2 501.4L301.2 494.5Z" fill="#205a7a" stroke="#205a7a"></path><path d="M420.6 523.5L513.1 563.7L449.1 487.8Z" fill="#205a7a" stroke="#205a7a"></path><path d="M486.3 595.7L513.1 563.7L420.6 523.5Z" fill="#205a7a" stroke="#205a7a"></path><path d="M721.9 460.2L740.5 418.5L704.2 419.1Z" fill="#081a28" stroke="#081a28"></path><path d="M59.1 380.2L149.1 434.4L150.7 379.4Z" fill="#246688" stroke="#246688"></path><path d="M150.7 379.4L149.1 434.4L210.8 392.2Z" fill="#081a28" stroke="#081a28"></path><path d="M59.1 380.2L150.7 379.4L117.1 319.1Z" fill="#0c2435" stroke="#0c2435"></path><path d="M216.8 519.8L244.2 527.8L219.8 492.5Z" fill="#205a7a" stroke="#205a7a"></path><path d="M219.8 492.5L244.2 527.8L244.2 486.7Z" fill="#112e42" stroke="#112e42"></path><path d="M52.1 275.9L93.5 308.8L103.5 292.9Z" fill="#1d4e6b" stroke="#1d4e6b"></path><path d="M103.5 292.9L93.5 308.8L112.4 304.2Z" fill="#1d4e6b" stroke="#1d4e6b"></path><path d="M781.6 305.1L729.2 225.9L733.9 290.1Z" fill="#246688" stroke="#246688"></path><path d="M244.2 527.8L320.9 569.7L301.2 494.5Z" fill="#081a28" stroke="#081a28"></path><path d="M320.9 569.7L330.3 572.8L362.2 501.4Z" fill="#19435d" stroke="#19435d"></path><path d="M209.8 0L162.7 19.2L187.1 38.2Z" fill="#1d4e6b" stroke="#1d4e6b"></path><path d="M209.1 519.7L216.8 519.8L219.8 492.5Z" fill="#15384f" stroke="#15384f"></path><path d="M291.2 600L318.6 600L320.9 569.7Z" fill="#112e42" stroke="#112e42"></path><path d="M156.7 491.7L158.7 466.2L134.5 468.8Z" fill="#00101c" stroke="#00101c"></path><path d="M149.1 434.4L158.7 466.2L210.8 392.2Z" fill="#081a28" stroke="#081a28"></path><path d="M168.1 500.5L209.1 519.7L219.8 492.5Z" fill="#19435d" stroke="#19435d"></path><path d="M216.8 519.8L201.5 544.7L244.2 527.8Z" fill="#277297" stroke="#277297"></path><path d="M775.9 148.6L754.3 112.5L736.5 132.8Z" fill="#15384f" stroke="#15384f"></path><path d="M736.5 132.8L754.3 112.5L707.8 92.6Z" fill="#081a28" stroke="#081a28"></path><path d="M707.8 92.6L703.8 0L692.9 98.5Z" fill="#205a7a" stroke="#205a7a"></path><path d="M366.3 600L417.9 600L410.6 574.7Z" fill="#1d4e6b" stroke="#1d4e6b"></path><path d="M410.6 574.7L486.3 595.7L420.6 523.5Z" fill="#277297" stroke="#277297"></path><path d="M417.9 600L486.3 595.7L410.6 574.7Z" fill="#205a7a" stroke="#205a7a"></path><path d="M670.5 406.2L595.8 444.7L702.8 493.5Z" fill="#19435d" stroke="#19435d"></path><path d="M595.8 444.7L686.8 515.8L702.8 493.5Z" fill="#297ea6" stroke="#297ea6"></path><path d="M704.2 419.1L740.5 418.5L739.3 351.1Z" fill="#0c2435" stroke="#0c2435"></path><path d="M739.3 351.1L781.6 305.1L733.9 290.1Z" fill="#297ea6" stroke="#297ea6"></path><path d="M815.9 323.9L781.6 305.1L739.3 351.1Z" fill="#15384f" stroke="#15384f"></path><path d="M762.5 172.3L775.9 148.6L736.5 132.8Z" fill="#19435d" stroke="#19435d"></path><path d="M851.6 137.6L775.9 148.6L762.5 172.3Z" fill="#19435d" stroke="#19435d"></path><path d="M318.6 600L366.3 600L330.3 572.8Z" fill="#246688" stroke="#246688"></path><path d="M330.3 572.8L366.3 600L410.6 574.7Z" fill="#112e42" stroke="#112e42"></path><path d="M318.6 600L330.3 572.8L320.9 569.7Z" fill="#081a28" stroke="#081a28"></path><path d="M417.9 600L490.1 600L486.3 595.7Z" fill="#112e42" stroke="#112e42"></path><path d="M486.3 595.7L490.1 600L513.1 563.7Z" fill="#112e42" stroke="#112e42"></path><path d="M58.1 94.5L74.4 145.8L159.7 109.3Z" fill="#00101c" stroke="#00101c"></path><path d="M100.5 177.3L57.1 232.6L135.7 217.5Z" fill="#297ea6" stroke="#297ea6"></path><path d="M158.7 466.2L168.1 500.5L219.8 492.5Z" fill="#277297" stroke="#277297"></path><path d="M291.2 600L320.9 569.7L244.2 527.8Z" fill="#15384f" stroke="#15384f"></path><path d="M156.7 491.7L168.1 500.5L158.7 466.2Z" fill="#0c2435" stroke="#0c2435"></path><path d="M134.5 468.8L158.7 466.2L149.1 434.4Z" fill="#205a7a" stroke="#205a7a"></path><path d="M209.8 0L150.1 0L162.7 19.2Z" fill="#0c2435" stroke="#0c2435"></path><path d="M162.7 19.2L113.5 0L159.7 109.3Z" fill="#297ea6" stroke="#297ea6"></path><path d="M410.3 -36.8L150.1 0L209.8 0Z" fill="#112e42" stroke="#112e42"></path><path d="M528.7 600L556.1 506.4L513.1 563.7Z" fill="#112e42" stroke="#112e42"></path><path d="M740.3 0L703.8 0L707.8 92.6Z" fill="#15384f" stroke="#15384f"></path><path d="M639.2 0L782.5 -39.8L632.5 0Z" fill="#205a7a" stroke="#205a7a"></path><path d="M740.3 0L707.8 92.6L756.9 0Z" fill="#205a7a" stroke="#205a7a"></path><path d="M74.4 145.8L57.1 232.6L100.5 177.3Z" fill="#0c2435" stroke="#0c2435"></path><path d="M59.1 380.2L134.5 468.8L149.1 434.4Z" fill="#297ea6" stroke="#297ea6"></path><path d="M58.4 339.4L117.1 319.1L93.5 308.8Z" fill="#205a7a" stroke="#205a7a"></path><path d="M490.1 600L528.7 600L513.1 563.7Z" fill="#1d4e6b" stroke="#1d4e6b"></path><path d="M201.5 544.7L216.8 519.8L209.1 519.7Z" fill="#15384f" stroke="#15384f"></path><path d="M686.8 515.8L595.8 444.7L657.5 547.7Z" fill="#1d4e6b" stroke="#1d4e6b"></path><path d="M57.1 232.6L52.1 275.9L114.4 280.1Z" fill="#081a28" stroke="#081a28"></path><path d="M174.1 547.8L209.1 519.7L168.1 500.5Z" fill="#15384f" stroke="#15384f"></path><path d="M174.1 547.8L201.5 544.7L209.1 519.7Z" fill="#081a28" stroke="#081a28"></path><path d="M174.1 547.8L168.1 500.5L156.7 491.7Z" fill="#19435d" stroke="#19435d"></path><path d="M657.5 547.7L595.8 444.7L556.1 506.4Z" fill="#00101c" stroke="#00101c"></path><path d="M52.1 275.9L58.4 339.4L93.5 308.8Z" fill="#205a7a" stroke="#205a7a"></path><path d="M250.8 600L291.2 600L244.2 527.8Z" fill="#205a7a" stroke="#205a7a"></path><path d="M635.2 600L657.5 547.7L556.1 506.4Z" fill="#277297" stroke="#277297"></path><path d="M291.2 600L350.9 620.8L318.6 600Z" fill="#081a28" stroke="#081a28"></path><path d="M318.6 600L350.9 620.8L366.3 600Z" fill="#205a7a" stroke="#205a7a"></path><path d="M366.3 600L366.6 644.8L417.9 600Z" fill="#297ea6" stroke="#297ea6"></path><path d="M417.9 600L505.7 637.8L490.1 600Z" fill="#00101c" stroke="#00101c"></path><path d="M490.1 600L505.7 637.8L528.7 600Z" fill="#1d4e6b" stroke="#1d4e6b"></path><path d="M741.2 545.5L710.5 504.4L686.8 515.8Z" fill="#081a28" stroke="#081a28"></path><path d="M686.8 515.8L710.5 504.4L702.8 493.5Z" fill="#00101c" stroke="#00101c"></path><path d="M702.8 493.5L741.3 492.8L721.9 460.2Z" fill="#297ea6" stroke="#297ea6"></path><path d="M721.9 460.2L803.9 444.5L740.5 418.5Z" fill="#297ea6" stroke="#297ea6"></path><path d="M846.3 400.5L815.9 323.9L739.3 351.1Z" fill="#0c2435" stroke="#0c2435"></path><path d="M58.4 339.4L59.1 380.2L117.1 319.1Z" fill="#1d4e6b" stroke="#1d4e6b"></path><path d="M26.7 375.9L59.1 380.2L58.4 339.4Z" fill="#297ea6" stroke="#297ea6"></path><path d="M57.1 232.6L32.4 259.6L52.1 275.9Z" fill="#081a28" stroke="#081a28"></path><path d="M52.1 275.9L0 333.9L58.4 339.4Z" fill="#112e42" stroke="#112e42"></path><path d="M0 261.8L32.4 259.6L0 217.6Z" fill="#00101c" stroke="#00101c"></path><path d="M410.3 -36.8L113.5 0L150.1 0Z" fill="#246688" stroke="#246688"></path><path d="M150.1 0L113.5 0L162.7 19.2Z" fill="#246688" stroke="#246688"></path><path d="M0 174.3L0 217.6L57.1 232.6Z" fill="#00101c" stroke="#00101c"></path><path d="M74.7 556.8L174.1 547.8L156.7 491.7Z" fill="#0c2435" stroke="#0c2435"></path><path d="M201.5 544.7L250.8 600L244.2 527.8Z" fill="#112e42" stroke="#112e42"></path><path d="M168.1 600L174.1 547.8L114.5 600Z" fill="#15384f" stroke="#15384f"></path><path d="M113.5 0L58.1 94.5L159.7 109.3Z" fill="#297ea6" stroke="#297ea6"></path><path d="M756.9 0L707.8 92.6L754.3 112.5Z" fill="#246688" stroke="#246688"></path><path d="M703.8 0L782.5 -39.8L639.2 0Z" fill="#112e42" stroke="#112e42"></path><path d="M851.6 137.6L800.6 108.2L775.9 148.6Z" fill="#246688" stroke="#246688"></path><path d="M775.9 148.6L800.6 108.2L754.3 112.5Z" fill="#1d4e6b" stroke="#1d4e6b"></path><path d="M846.3 400.5L739.3 351.1L740.5 418.5Z" fill="#15384f" stroke="#15384f"></path><path d="M781.6 305.1L831.6 292.9L729.2 225.9Z" fill="#15384f" stroke="#15384f"></path><path d="M168.1 600L250.8 600L201.5 544.7Z" fill="#205a7a" stroke="#205a7a"></path><path d="M291.2 600L366.6 644.8L350.9 620.8Z" fill="#1d4e6b" stroke="#1d4e6b"></path><path d="M741.2 545.5L741.3 492.8L710.5 504.4Z" fill="#081a28" stroke="#081a28"></path><path d="M710.5 504.4L741.3 492.8L702.8 493.5Z" fill="#19435d" stroke="#19435d"></path><path d="M366.6 644.8L505.7 637.8L417.9 600Z" fill="#19435d" stroke="#19435d"></path><path d="M528.7 600L635.2 600L556.1 506.4Z" fill="#00101c" stroke="#00101c"></path><path d="M250.8 600L366.6 644.8L291.2 600Z" fill="#00101c" stroke="#00101c"></path><path d="M350.9 620.8L366.6 644.8L366.3 600Z" fill="#205a7a" stroke="#205a7a"></path><path d="M0 124.2L34.7 126.6L-4.6 118.2Z" fill="#246688" stroke="#246688"></path><path d="M58.1 94.5L34.7 126.6L74.4 145.8Z" fill="#081a28" stroke="#081a28"></path><path d="M851.6 137.6L805.5 91.6L800.6 108.2Z" fill="#00101c" stroke="#00101c"></path><path d="M800.6 108.2L805.5 91.6L754.3 112.5Z" fill="#00101c" stroke="#00101c"></path><path d="M889.3 328.9L831.6 292.9L815.9 323.9Z" fill="#15384f" stroke="#15384f"></path><path d="M815.9 323.9L831.6 292.9L781.6 305.1Z" fill="#246688" stroke="#246688"></path><path d="M805.5 91.6L756.9 0L754.3 112.5Z" fill="#00101c" stroke="#00101c"></path><path d="M740.3 0L782.5 -39.8L703.8 0Z" fill="#1d4e6b" stroke="#1d4e6b"></path><path d="M623.4 627.8L635.2 600L528.7 600Z" fill="#297ea6" stroke="#297ea6"></path><path d="M657.5 547.7L675.5 583.8L686.8 515.8Z" fill="#297ea6" stroke="#297ea6"></path><path d="M0 333.9L26.7 375.9L58.4 339.4Z" fill="#0c2435" stroke="#0c2435"></path><path d="M59.1 380.2L4.4 434.7L134.5 468.8Z" fill="#112e42" stroke="#112e42"></path><path d="M0 265.1L52.1 275.9L32.4 259.6Z" fill="#297ea6" stroke="#297ea6"></path><path d="M635.2 600L675.5 583.8L657.5 547.7Z" fill="#1d4e6b" stroke="#1d4e6b"></path><path d="M0 217.6L32.4 259.6L57.1 232.6Z" fill="#00101c" stroke="#00101c"></path><path d="M0 261.8L0 265.1L32.4 259.6Z" fill="#297ea6" stroke="#297ea6"></path><path d="M0 174.3L57.1 232.6L74.4 145.8Z" fill="#081a28" stroke="#081a28"></path><path d="M815.9 536.7L803.9 444.5L741.3 492.8Z" fill="#15384f" stroke="#15384f"></path><path d="M741.3 492.8L803.9 444.5L721.9 460.2Z" fill="#0c2435" stroke="#0c2435"></path><path d="M623.4 627.8L663.4 600L635.2 600Z" fill="#15384f" stroke="#15384f"></path><path d="M635.2 600L663.4 600L675.5 583.8Z" fill="#19435d" stroke="#19435d"></path><path d="M675.5 583.8L741.2 545.5L686.8 515.8Z" fill="#205a7a" stroke="#205a7a"></path><path d="M0 124.2L0 174.3L34.7 126.6Z" fill="#112e42" stroke="#112e42"></path><path d="M34.7 126.6L0 174.3L74.4 145.8Z" fill="#0c2435" stroke="#0c2435"></path><path d="M410.3 -36.8L68.4 0L113.5 0Z" fill="#246688" stroke="#246688"></path><path d="M113.5 0L68.4 0L58.1 94.5Z" fill="#112e42" stroke="#112e42"></path><path d="M505.7 637.8L623.4 627.8L528.7 600Z" fill="#297ea6" stroke="#297ea6"></path><path d="M623.4 627.8L673.9 600L663.4 600Z" fill="#1d4e6b" stroke="#1d4e6b"></path><path d="M663.4 600L673.9 600L675.5 583.8Z" fill="#205a7a" stroke="#205a7a"></path><path d="M0 265.1L0 333.9L52.1 275.9Z" fill="#19435d" stroke="#19435d"></path><path d="M696.9 594.8L741.2 545.5L675.5 583.8Z" fill="#0c2435" stroke="#0c2435"></path><path d="M900 224.5L851.6 137.6L762.5 172.3Z" fill="#277297" stroke="#277297"></path><path d="M847.3 33.2L782.5 -39.8L756.9 0Z" fill="#0c2435" stroke="#0c2435"></path><path d="M174.1 547.8L168.1 600L201.5 544.7Z" fill="#19435d" stroke="#19435d"></path><path d="M250.8 600L168.1 600L366.6 644.8Z" fill="#112e42" stroke="#112e42"></path><path d="M74.7 556.8L156.7 491.7L134.5 468.8Z" fill="#00101c" stroke="#00101c"></path><path d="M4.4 434.7L59.1 380.2L26.7 375.9Z" fill="#15384f" stroke="#15384f"></path><path d="M-4.6 118.2L34.7 126.6L58.1 94.5Z" fill="#1d4e6b" stroke="#1d4e6b"></path><path d="M673.9 600L696.9 594.8L675.5 583.8Z" fill="#205a7a" stroke="#205a7a"></path><path d="M695.5 600L696.9 594.8L673.9 600Z" fill="#112e42" stroke="#112e42"></path><path d="M623.4 627.8L695.5 600L673.9 600Z" fill="#00101c" stroke="#00101c"></path><path d="M696.9 594.8L707.8 600L741.2 545.5Z" fill="#112e42" stroke="#112e42"></path><path d="M0 333.9L0 380.2L26.7 375.9Z" fill="#15384f" stroke="#15384f"></path><path d="M0 49.5L-4.6 118.2L58.1 94.5Z" fill="#0c2435" stroke="#0c2435"></path><path d="M0 124.2L-46.6 182.5L0 174.3Z" fill="#112e42" stroke="#112e42"></path><path d="M-46.6 182.5L0 261.8L0 217.6Z" fill="#297ea6" stroke="#297ea6"></path><path d="M-46.6 182.5L0 265.1L0 261.8Z" fill="#19435d" stroke="#19435d"></path><path d="M-46.6 182.5L-29.6 363.9L0 265.1Z" fill="#1d4e6b" stroke="#1d4e6b"></path><path d="M0 265.1L-29.6 363.9L0 333.9Z" fill="#15384f" stroke="#15384f"></path><path d="M0 333.9L-29.6 363.9L0 380.2Z" fill="#1d4e6b" stroke="#1d4e6b"></path><path d="M878.3 387.2L846.3 400.5L887.3 421.7Z" fill="#205a7a" stroke="#205a7a"></path><path d="M803.9 444.5L846.3 400.5L740.5 418.5Z" fill="#0c2435" stroke="#0c2435"></path><path d="M900 162.3L877.3 133.6L851.6 137.6Z" fill="#246688" stroke="#246688"></path><path d="M-29.6 363.9L0 396.4L0 380.2Z" fill="#19435d" stroke="#19435d"></path><path d="M0 380.2L0 396.4L26.7 375.9Z" fill="#081a28" stroke="#081a28"></path><path d="M847.3 33.2L756.9 0L805.5 91.6Z" fill="#1d4e6b" stroke="#1d4e6b"></path><path d="M756.9 0L782.5 -39.8L740.3 0Z" fill="#00101c" stroke="#00101c"></path><path d="M695.5 600L707.8 600L696.9 594.8Z" fill="#15384f" stroke="#15384f"></path><path d="M887.3 421.7L846.3 400.5L862.6 477.7Z" fill="#15384f" stroke="#15384f"></path><path d="M745.2 617.8L707.8 600L695.5 600Z" fill="#297ea6" stroke="#297ea6"></path><path d="M410.3 -36.8L31.7 0L68.4 0Z" fill="#297ea6" stroke="#297ea6"></path><path d="M68.4 0L10.4 36.3L58.1 94.5Z" fill="#246688" stroke="#246688"></path><path d="M0 396.4L4.4 434.7L26.7 375.9Z" fill="#081a28" stroke="#081a28"></path><path d="M31.7 0L10.4 36.3L68.4 0Z" fill="#081a28" stroke="#081a28"></path><path d="M900 224.5L762.5 172.3L831.6 292.9Z" fill="#205a7a" stroke="#205a7a"></path><path d="M851.6 137.6L902.3 97.3L805.5 91.6Z" fill="#00101c" stroke="#00101c"></path><path d="M0 0L0 49.5L10.4 36.3Z" fill="#081a28" stroke="#081a28"></path><path d="M10.4 36.3L0 49.5L58.1 94.5Z" fill="#246688" stroke="#246688"></path><path d="M-29.6 363.9L0 438.5L0 396.4Z" fill="#081a28" stroke="#081a28"></path><path d="M0 396.4L0 438.5L4.4 434.7Z" fill="#0c2435" stroke="#0c2435"></path><path d="M53.4 536.5L74.7 556.8L134.5 468.8Z" fill="#1d4e6b" stroke="#1d4e6b"></path><path d="M902.3 97.3L847.3 33.2L805.5 91.6Z" fill="#081a28" stroke="#081a28"></path><path d="M878.3 387.2L889.3 328.9L815.9 323.9Z" fill="#0c2435" stroke="#0c2435"></path><path d="M53.4 536.5L134.5 468.8L21.7 512.5Z" fill="#0c2435" stroke="#0c2435"></path><path d="M-46.6 182.5L0 124.2L-4.6 118.2Z" fill="#277297" stroke="#277297"></path><path d="M-46.6 182.5L0 217.6L0 174.3Z" fill="#205a7a" stroke="#205a7a"></path><path d="M900 267.6L900 226.8L831.6 292.9Z" fill="#1d4e6b" stroke="#1d4e6b"></path><path d="M900 226.8L900 224.5L831.6 292.9Z" fill="#1d4e6b" stroke="#1d4e6b"></path><path d="M74.7 556.8L114.5 600L174.1 547.8Z" fill="#00101c" stroke="#00101c"></path><path d="M168.1 600L16.4 645.8L366.6 644.8Z" fill="#297ea6" stroke="#297ea6"></path><path d="M889.3 328.9L900 267.6L831.6 292.9Z" fill="#00101c" stroke="#00101c"></path><path d="M846.3 400.5L878.3 387.2L815.9 323.9Z" fill="#112e42" stroke="#112e42"></path><path d="M815.9 536.7L741.3 492.8L741.2 545.5Z" fill="#15384f" stroke="#15384f"></path><path d="M21.7 512.5L134.5 468.8L4.4 434.7Z" fill="#081a28" stroke="#081a28"></path><path d="M74.7 556.8L43.7 600L114.5 600Z" fill="#1d4e6b" stroke="#1d4e6b"></path><path d="M0 49.5L-46.6 182.5L-4.6 118.2Z" fill="#15384f" stroke="#15384f"></path><path d="M900 224.5L899.6 187.8L851.6 137.6Z" fill="#297ea6" stroke="#297ea6"></path><path d="M877.3 133.6L902.3 97.3L851.6 137.6Z" fill="#00101c" stroke="#00101c"></path><path d="M906.6 187.3L900 162.3L899.6 187.8Z" fill="#297ea6" stroke="#297ea6"></path><path d="M899.6 187.8L900 162.3L851.6 137.6Z" fill="#081a28" stroke="#081a28"></path><path d="M900 226.8L906.6 187.3L900 224.5Z" fill="#19435d" stroke="#19435d"></path><path d="M900 224.5L906.6 187.3L899.6 187.8Z" fill="#1d4e6b" stroke="#1d4e6b"></path><path d="M929.6 148.5L906.6 187.3L900 226.8Z" fill="#00101c" stroke="#00101c"></path><path d="M900 345.1L900 344.9L889.3 328.9Z" fill="#297ea6" stroke="#297ea6"></path><path d="M889.3 328.9L900 344.9L900 267.6Z" fill="#19435d" stroke="#19435d"></path><path d="M900 267.6L929.6 148.5L900 226.8Z" fill="#112e42" stroke="#112e42"></path><path d="M878.3 387.2L900 345.1L889.3 328.9Z" fill="#15384f" stroke="#15384f"></path><path d="M924.6 402.2L929.6 148.5L900 267.6Z" fill="#15384f" stroke="#15384f"></path><path d="M929.6 148.5L900 137.2L900 162.3Z" fill="#0c2435" stroke="#0c2435"></path><path d="M900 162.3L900 137.2L877.3 133.6Z" fill="#0c2435" stroke="#0c2435"></path><path d="M0 493.8L4.4 434.7L0 438.5Z" fill="#19435d" stroke="#19435d"></path><path d="M0 493.8L21.7 512.5L4.4 434.7Z" fill="#1d4e6b" stroke="#1d4e6b"></path><path d="M53.4 536.5L43.7 600L74.7 556.8Z" fill="#081a28" stroke="#081a28"></path><path d="M800.3 600L815.9 536.7L741.2 545.5Z" fill="#297ea6" stroke="#297ea6"></path><path d="M878.3 387.2L900 391.2L900 345.1Z" fill="#112e42" stroke="#112e42"></path><path d="M815.9 536.7L846.3 493.4L803.9 444.5Z" fill="#112e42" stroke="#112e42"></path><path d="M31.7 0L0 0L10.4 36.3Z" fill="#19435d" stroke="#19435d"></path><path d="M0 49.5L0 0L-46.6 182.5Z" fill="#205a7a" stroke="#205a7a"></path><path d="M410.3 -36.8L0 0L31.7 0Z" fill="#277297" stroke="#277297"></path><path d="M707.8 600L745.2 617.8L741.2 545.5Z" fill="#0c2435" stroke="#0c2435"></path><path d="M623.4 627.8L745.2 617.8L695.5 600Z" fill="#15384f" stroke="#15384f"></path><path d="M802.6 620.8L745.2 617.8L900 644.8Z" fill="#00101c" stroke="#00101c"></path><path d="M862.6 477.7L846.3 400.5L803.9 444.5Z" fill="#205a7a" stroke="#205a7a"></path><path d="M-29.6 363.9L0 493.8L0 438.5Z" fill="#205a7a" stroke="#205a7a"></path><path d="M14.4 600L43.7 600L53.4 536.5Z" fill="#246688" stroke="#246688"></path><path d="M846.3 493.4L862.6 477.7L803.9 444.5Z" fill="#1d4e6b" stroke="#1d4e6b"></path><path d="M900 468.7L862.6 477.7L900 484.4Z" fill="#15384f" stroke="#15384f"></path><path d="M887.3 421.7L900 391.2L878.3 387.2Z" fill="#246688" stroke="#246688"></path><path d="M924.6 402.2L900 267.6L900 344.9Z" fill="#205a7a" stroke="#205a7a"></path><path d="M929.6 148.5L902.3 97.3L900 137.2Z" fill="#112e42" stroke="#112e42"></path><path d="M900 137.2L902.3 97.3L877.3 133.6Z" fill="#00101c" stroke="#00101c"></path><path d="M847.3 33.2L841.9 -36.8L782.5 -39.8Z" fill="#112e42" stroke="#112e42"></path><path d="M900 0L861.6 0L847.3 33.2Z" fill="#19435d" stroke="#19435d"></path><path d="M861.6 0L841.9 -36.8L847.3 33.2Z" fill="#112e42" stroke="#112e42"></path><path d="M900 468.7L900 427.5L887.3 421.7Z" fill="#081a28" stroke="#081a28"></path><path d="M887.3 421.7L900 427.5L900 391.2Z" fill="#1d4e6b" stroke="#1d4e6b"></path><path d="M924.6 402.2L900 344.9L900 345.1Z" fill="#1d4e6b" stroke="#1d4e6b"></path><path d="M906.6 187.3L929.6 148.5L900 162.3Z" fill="#0c2435" stroke="#0c2435"></path><path d="M902.3 97.3L900 0L847.3 33.2Z" fill="#081a28" stroke="#081a28"></path><path d="M924.6 402.2L900 345.1L900 391.2Z" fill="#19435d" stroke="#19435d"></path><path d="M745.2 617.8L800.3 600L741.2 545.5Z" fill="#205a7a" stroke="#205a7a"></path><path d="M900 484.4L862.6 477.7L887.6 527.5Z" fill="#00101c" stroke="#00101c"></path><path d="M900 468.7L924.6 402.2L900 427.5Z" fill="#0c2435" stroke="#0c2435"></path><path d="M900 468.7L887.3 421.7L862.6 477.7Z" fill="#277297" stroke="#277297"></path><path d="M900 427.5L924.6 402.2L900 391.2Z" fill="#205a7a" stroke="#205a7a"></path><path d="M14.4 600L53.4 536.5L21.7 512.5Z" fill="#00101c" stroke="#00101c"></path><path d="M114.5 600L16.4 645.8L168.1 600Z" fill="#0c2435" stroke="#0c2435"></path><path d="M862.6 477.7L846.3 493.4L887.6 527.5Z" fill="#277297" stroke="#277297"></path><path d="M887.6 527.5L846.3 493.4L815.9 536.7Z" fill="#081a28" stroke="#081a28"></path><path d="M900 468.7L911.6 508.4L924.6 402.2Z" fill="#277297" stroke="#277297"></path><path d="M929.6 148.5L900 0L902.3 97.3Z" fill="#1d4e6b" stroke="#1d4e6b"></path><path d="M861.6 0L900 0L841.9 -36.8Z" fill="#112e42" stroke="#112e42"></path><path d="M745.2 617.8L802.6 620.8L800.3 600Z" fill="#297ea6" stroke="#297ea6"></path><path d="M842.6 600L887.6 527.5L815.9 536.7Z" fill="#205a7a" stroke="#205a7a"></path><path d="M900 644.8L745.2 617.8L623.4 627.8Z" fill="#00101c" stroke="#00101c"></path><path d="M842.6 600L815.9 536.7L800.3 600Z" fill="#15384f" stroke="#15384f"></path><path d="M900 484.4L911.6 508.4L900 468.7Z" fill="#0c2435" stroke="#0c2435"></path><path d="M0 600L21.7 512.5L0 493.8Z" fill="#0c2435" stroke="#0c2435"></path><path d="M0 600L14.4 600L21.7 512.5Z" fill="#277297" stroke="#277297"></path><path d="M43.7 600L16.4 645.8L114.5 600Z" fill="#00101c" stroke="#00101c"></path><path d="M802.6 620.8L842.6 600L800.3 600Z" fill="#19435d" stroke="#19435d"></path><path d="M900 600L911.6 508.4L887.6 527.5Z" fill="#246688" stroke="#246688"></path><path d="M887.6 527.5L911.6 508.4L900 484.4Z" fill="#297ea6" stroke="#297ea6"></path><path d="M-29.6 363.9L0 600L0 493.8Z" fill="#297ea6" stroke="#297ea6"></path><path d="M14.4 600L16.4 645.8L43.7 600Z" fill="#112e42" stroke="#112e42"></path><path d="M-29.6 363.9L0 605.7L0 600Z" fill="#19435d" stroke="#19435d"></path><path d="M0 600L0 605.7L14.4 600Z" fill="#246688" stroke="#246688"></path><path d="M0 605.7L16.4 645.8L14.4 600Z" fill="#205a7a" stroke="#205a7a"></path><path d="M900 644.8L900 600L842.6 600Z" fill="#297ea6" stroke="#297ea6"></path><path d="M842.6 600L900 600L887.6 527.5Z" fill="#277297" stroke="#277297"></path><path d="M505.7 637.8L900 644.8L623.4 627.8Z" fill="#205a7a" stroke="#205a7a"></path><path d="M802.6 620.8L900 644.8L842.6 600Z" fill="#00101c" stroke="#00101c"></path><path d="M900 600L900 644.8L911.6 508.4Z" fill="#205a7a" stroke="#205a7a"></path><path d="M911.6 508.4L900 644.8L924.6 402.2Z" fill="#081a28" stroke="#081a28"></path><path d="M366.6 644.8L900 644.8L505.7 637.8Z" fill="#246688" stroke="#246688"></path><path d="M16.4 645.8L900 644.8L366.6 644.8Z" fill="#297ea6" stroke="#297ea6"></path></g></svg>